<?xml version="1.0" encoding="iso-8859-1"?>
<!-- Generator: Adobe Illustrator 19.0.0, SVG Export Plug-In . SVG Version: 6.00 Build 0)  -->
<svg version="1.1" id="Layer_1" xmlns="http://www.w3.org/2000/svg" xmlns:xlink="http://www.w3.org/1999/xlink" x="0px" y="0px"
	 viewBox="0 0 502 502" style="enable-background:new 0 0 502 502;" xml:space="preserve">
<g>
	<g>
		<g>
			<path d="M205,172c24.813,0,45-20.187,45-45s-20.187-45-45-45s-45,20.187-45,45S180.187,172,205,172z M205,102
				c13.785,0,25,11.215,25,25c0,13.785-11.215,25-25,25c-13.785,0-25-11.215-25-25C180,113.215,191.215,102,205,102z"/>
			<path d="M465.5,0h-429c-5.523,0-10,4.477-10,10v482c0,5.523,4.477,10,10,10h429c5.523,0,10-4.477,10-10V10
				C475.5,4.477,471.023,0,465.5,0z M455.5,482h-409V20h409V482z"/>
			<path d="M76,368h350c5.523,0,10-4.477,10-10V50c0-5.523-4.477-10-10-10H76c-5.523,0-10,4.477-10,10v307.768V358
				C66,363.523,70.477,368,76,368z M141.182,347.961L271.5,217.642l129.897,129.897L141.182,347.961z M86,60h330v273.857
				L278.571,196.429c-3.905-3.905-10.237-3.905-14.143,0l-64.646,64.646l-85.179-85.179c-3.905-3.905-10.237-3.905-14.143,0
				L86,190.357V60z M86,218.643l21.533-21.534l78.108,78.108l-72.491,72.491L86,347.751V218.643z"/>
			<path d="M330.429,322.571c1.952,1.953,4.512,2.929,7.071,2.929c2.559,0,5.119-0.976,7.072-2.929
				c3.905-3.906,3.905-10.238,0-14.143l-32.498-32.498c-3.906-3.905-10.238-3.905-14.143,0c-3.905,3.906-3.905,10.238,0,14.143
				L330.429,322.571z"/>
			<path d="M267.929,260.071l6,6c1.952,1.953,4.512,2.929,7.071,2.929c2.559,0,5.119-0.976,7.072-2.929
				c3.905-3.906,3.905-10.238,0-14.143l-6-6c-3.906-3.905-10.238-3.905-14.143,0C264.024,249.834,264.024,256.166,267.929,260.071z"
				/>
		</g>
	</g>
</g>
</svg>
