<?xml version="1.0" encoding="utf-8"?>
<!-- Generator: Adobe Illustrator 25.0.0, SVG Export Plug-In . SVG Version: 6.00 Build 0)  -->
<svg version="1.1" id="Layer_1" xmlns="http://www.w3.org/2000/svg" xmlns:xlink="http://www.w3.org/1999/xlink" x="0px" y="0px"
	 viewBox="0 0 512 512" style="enable-background:new 0 0 512 512;" xml:space="preserve">
<path d="M70.1,33.4v285.3c0,36.6,17.3,69.6,47.5,90.6c45.8,31.7,92.2,66.4,133.2,97c1.6,1.2,3.3,1.7,5.2,1.7c1.8,0,3.6-0.6,5.1-1.7
	c41-30.7,87.5-65.5,133.4-97.3c30.1-21,47.4-54,47.4-90.5V33.4c0-3.9-2.7-7.3-6.5-8.3C376.7,11,316.4,4,256,4
	c-60.4,0-120.7,7-179.4,21.1C72.8,26.1,70.1,29.5,70.1,33.4z M87.1,40.1l3.1-0.7C144.6,27.2,200.4,21,256,21s111.4,6.2,165.8,18.4
	l3.1,0.7l0,278.4c0,30.9-14.6,58.8-40.1,76.5c-42.3,29.3-83.9,60.3-126.4,92l-2.4,1.8l-2.4-1.8c-42.5-31.7-84.1-62.5-126.3-91.8
	c-25.6-17.8-40.2-45.7-40.2-76.6V40.1z"/>
<path d="M256,53.9c-43.1,0-86.5,3.9-129,11.7c-4,0.7-7,4.3-7,8.4v244.8c0,19.9,9.5,38,26,49.4C183.3,394,220,421,250.9,444
	c1.5,1.1,3.2,1.7,5.1,1.7c1.8,0,3.6-0.6,5.1-1.7c30.9-23,67.6-50.1,104.9-76c16.5-11.5,26-29.5,26-49.4V73.9c0-4.1-2.9-7.6-7-8.4
	C342.5,57.8,299.1,53.9,256,53.9z M375,318.6c0,14.3-6.8,27.2-18.7,35.5l0,0c-36.1,25-71.3,50.9-97.9,70.7l-2.4,1.8l-2.4-1.8
	c-26.6-19.8-61.8-45.6-97.8-70.6C143.9,346,137,333,137,318.8V81l3.3-0.6c37.7-6.4,76.6-9.6,115.6-9.6c39,0,77.9,3.2,115.6,9.6
	L375,81V318.6z"/>
<path d="M236.6,288.4c1.6,1.6,3.8,2.5,6.1,2.5l0.1,0c2.4,0,4.6-1.1,6.2-2.8l89.1-98.3c1.5-1.7,2.3-3.9,2.2-6.1
	c-0.1-2.3-1.1-4.4-2.8-5.9l0,0c-1.7-1.5-3.9-2.3-6.1-2.2c-2.3,0.1-4.4,1.1-5.9,2.8l-83.1,91.6l-42-42.7c-1.6-1.6-3.7-2.5-6-2.5
	c0,0,0,0-0.1,0c-2.2,0-4.4,0.9-6,2.4c-3.3,3.3-3.4,8.7-0.1,12L236.6,288.4z"/>
</svg>
