<?xml version="1.0" encoding="utf-8"?>
<!-- Generator: Adobe Illustrator 25.0.0, SVG Export Plug-In . SVG Version: 6.00 Build 0)  -->
<svg version="1.1" id="Capa_1" xmlns="http://www.w3.org/2000/svg" xmlns:xlink="http://www.w3.org/1999/xlink" x="0px" y="0px"
	 viewBox="0 0 31.1 31.1" style="enable-background:new 0 0 31.1 31.1;" xml:space="preserve">
<path d="M30.6,15.2l-5.1-4.5V4c0-0.4-0.3-0.7-0.7-0.7h-3.7c-0.4,0-0.7,0.3-0.7,0.7v2.1L16,2.2c-0.3-0.2-0.7-0.2-0.9,0l-14.6,13
	c-0.2,0.2-0.3,0.5-0.2,0.8c0.1,0.3,0.4,0.5,0.7,0.5h4.9v11.9c0,0,0,0.3,0.2,0.5C6.1,28.9,6.2,29,6.5,29c0.3,0,0.4-0.1,0.5-0.2
	c0.2-0.2,0.2-0.5,0.2-0.5v-1.5H14c0.3,0,0.5-0.2,0.5-0.5s-0.2-0.5-0.5-0.5H7.2v-1.1H12c0.3,0,0.5-0.2,0.5-0.5s-0.2-0.5-0.5-0.5H7.2
	v-1.1H14c0.3,0,0.5-0.2,0.5-0.5s-0.2-0.5-0.5-0.5H7.2v-1.1H12c0.3,0,0.5-0.2,0.5-0.5s-0.2-0.5-0.5-0.5H7.2v-1.1H14
	c0.3,0,0.5-0.2,0.5-0.5s-0.2-0.5-0.5-0.5H7.2v-2.1c0-0.4-0.3-0.7-0.7-0.7H2.8L15.5,3.7l5.1,4.5c0.2,0.2,0.5,0.2,0.8,0.1
	c0.3-0.1,0.4-0.4,0.4-0.6v-3h2.3V11c0,0.2,0.1,0.4,0.2,0.5l4,3.5h-3.7c-0.4,0-0.7,0.3-0.7,0.7v12.6c0,0.4,0.3,0.7,0.7,0.7
	s0.7-0.3,0.7-0.7V16.4h4.9c0.3,0,0.6-0.2,0.7-0.5C30.9,15.7,30.8,15.4,30.6,15.2z"/>
</svg>
