<?xml version="1.0" encoding="utf-8"?>
<!-- Generator: Adobe Illustrator 25.0.0, SVG Export Plug-In . SVG Version: 6.00 Build 0)  -->
<svg version="1.1" id="Layer_1" xmlns="http://www.w3.org/2000/svg" xmlns:xlink="http://www.w3.org/1999/xlink" x="0px" y="0px"
	 viewBox="0 0 502 502" style="enable-background:new 0 0 502 502;" xml:space="preserve">
<g>
	<g>
		<path d="M493.7,60.7L333.1,32.2c-1.1-0.2-2.3-0.2-3.5,0L170.7,60.4L11.7,32.2c-2.9-0.5-5.9,0.3-8.2,2.2S0,39.1,0,42.1v389.4
			c0,4.9,3.5,9,8.3,9.8l160.7,28.4c1.1,0.2,2.4,0.2,3.5,0l158.9-28.1l158.9,28.1c0.6,0.1,1.2,0.2,1.7,0.2c2.3,0,4.6-0.8,6.4-2.3
			c2.3-1.9,3.6-4.7,3.6-7.7V70.5C502,65.7,498.5,61.5,493.7,60.7z M482,323.9l-53.4-53.4l53.4-53.4V323.9z M321.3,308.5l-70-135.5
			l70-40.1V308.5z M321.3,109.9l-140.7,80.5V78.9L321.3,54V109.9z M160.7,372.7V448l-96.4-17.1l77.7-77.7L160.7,372.7z M160.7,78.9
			v124.3l-47.2,47.2l-69.9-69.9L86,138.1l44.4,44.4c2,2,4.5,2.9,7.1,2.9s5.1-1,7.1-2.9c3.9-3.9,3.9-10.2,0-14.1L100.1,124l14.9-14.9
			c3.9-3.9,3.9-10.2,0-14.1c-3.9-3.9-10.2-3.9-14.1,0L20,175.9V54L160.7,78.9z M20,204.1C20,204.1,20,204.1,20,204.1l9.5-9.5
			l69.9,69.9l-28.4,28.4c-3.9,3.9-3.9,10.2,0,14.1c2,2,4.5,2.9,7.1,2.9s5.1-1,7.1-2.9l75.6-75.6v112.4l-33-34.3
			c-3.8-4-10.2-4.1-14.1-0.3c-4,3.8-4.1,10.2-0.3,14.1l14.8,15.4l-87.6,87.6c-0.1,0.1-0.1,0.2-0.2,0.2L20,423.1V204.1z M180.7,373.4
			l56.3-32.3c4.8-2.8,6.4-8.9,3.7-13.7c-2.7-4.8-8.9-6.4-13.7-3.7l-46.4,26.6V213.4l53.2-30.5l87.4,169.1v71L180.7,448V373.4z
			 M381.9,430.3l70.2-70.2c3.9-3.9,3.9-10.2,0-14.1c-3.9-3.9-10.2-3.9-14.1,0l-79,79c-0.4,0.4-0.7,0.7-0.9,1.1l-16.6-2.9V54
			L482,78.9v110l-90.1,90.1c-3.9,3.9-3.9,10.2,0,14.1c2,2,4.5,2.9,7.1,2.9s5.1-1,7.1-2.9l8.4-8.4l67.5,67.5V448L381.9,430.3z"/>
		<path d="M412.1,236.9c3.1,0,6-1.4,7.9-3.9c5.1-6.7,50-66.1,50-95.1C470,106,444,80,412.1,80s-57.9,26-57.9,57.9
			c0,29,44.9,88.4,50,95.1C406,235.5,409,236.9,412.1,236.9z M412.1,100c20.9,0,37.9,17,37.9,37.9c0,14.4-20.8,48.3-37.9,72.2
			c-17.1-23.9-37.9-57.7-37.9-72.2C374.2,117,391.2,100,412.1,100z"/>
		<path d="M440,137.9c0-15.4-12.5-27.9-27.9-27.9s-27.9,12.5-27.9,27.9s12.5,27.9,27.9,27.9C427.5,165.8,440,153.3,440,137.9z
			 M404.2,137.9c0-4.4,3.6-7.9,7.9-7.9c4.4,0,7.9,3.6,7.9,7.9s-3.6,7.9-7.9,7.9C407.7,145.8,404.2,142.3,404.2,137.9z"/>
		<path d="M46,342c2.6,0,5.1-1,7.1-2.9l10-10c3.9-3.9,3.9-10.2,0-14.1c-3.9-3.9-10.2-3.9-14.1,0l-10,10c-3.9,3.9-3.9,10.2,0,14.1
			C40.9,341,43.4,342,46,342z"/>
		<path d="M266,301.3l-14,8c-4.8,2.8-6.4,8.9-3.7,13.7c1.8,3.2,5.2,5,8.7,5c1.7,0,3.4-0.4,5-1.3l14-8c4.8-2.8,6.4-8.9,3.7-13.7
			C276.9,300.2,270.8,298.6,266,301.3z"/>
		<path d="M369.9,300.9l-9,9c-3.9,3.9-3.9,10.2,0,14.1c2,2,4.5,2.9,7.1,2.9s5.1-1,7.1-2.9l9-9c3.9-3.9,3.9-10.2,0-14.1
			C380.2,297,373.8,297,369.9,300.9z"/>
	</g>
</g>
</svg>
