<?xml version="1.0" encoding="utf-8"?>
<!-- Generator: Adobe Illustrator 25.0.0, SVG Export Plug-In . SVG Version: 6.00 Build 0)  -->
<svg version="1.1" id="Capa_1" xmlns="http://www.w3.org/2000/svg" xmlns:xlink="http://www.w3.org/1999/xlink" x="0px" y="0px"
	 viewBox="0 0 367.7 367.7" style="enable-background:new 0 0 367.7 367.7;" xml:space="preserve">
<g>
	<path d="M118.3,92.5c0,2.1,1.1,4.1,3,5.2c1.8,1.1,4.1,1.1,6,0.1l12.7-7.1h34.2c3.3,0,6-2.7,6-6s-2.7-6-6-6h-35.8
		c-1,0-2,0.3-2.9,0.8l-5.2,2.9V48.2c0-2.6,2.1-4.7,4.7-4.7h10.6c3.3,0,6-2.7,6-6s-2.7-6-6-6H135c-9.2,0-16.7,7.5-16.7,16.7V92.5z"/>
	<path d="M54.9,83.7c-19,0-34.5,15.5-34.5,34.5s15.5,34.5,34.5,34.5c19,0,34.5-15.5,34.5-34.5S73.9,83.7,54.9,83.7z M54.9,140.7
		c-12.4,0-22.5-10.1-22.5-22.5c0-12.4,10.1-22.5,22.5-22.5c12.4,0,22.5,10.1,22.5,22.5C77.4,130.6,67.3,140.7,54.9,140.7z"/>
	<path d="M72.6,292.7H19.2v-85.3c0-3.3-2.7-6-6-6s-6,2.7-6,6l0,151.2c0,3.3,2.7,6,6,6s6-2.7,6-6v-53.9h47.5v53.9c0,3.3,2.7,6,6,6
		s6-2.7,6-6v-59.9C78.6,295.4,75.9,292.7,72.6,292.7z"/>
	<path d="M132.2,352.7h-18.3v-86.1c0-3.3-2.7-6-6-6l-54.8-0.2v-73l67.4,22.5c3.1,1,6.5-0.7,7.6-3.8c1-3.1-0.7-6.5-3.8-7.6
		l-75.1-25.1c-0.5-0.2-1.1-0.3-1.6-0.4c-0.4,0-0.8,0-1.2,0c-0.9,0.1-1.8,0.4-2.5,0.9c-1.1,0.7-2,1.8-2.4,3.1
		c-0.2,0.7-0.3,1.4-0.3,2.1l0,0.1v87c0,0.1,0,0.2,0,0.3l0.1,0.3l0.1,0.7c0.6,2.7,3.1,4.6,5.8,4.7l54.8,0.2l0,86.1
		c0,1.3,0.4,2.6,1.2,3.6c1.1,1.5,2.9,2.4,4.8,2.4l0.2,0h24.1c3.3,0,6-2.7,6-6S135.5,352.7,132.2,352.7z"/>
	<path d="M322.9,271.9L322.9,271.9l0.3-0.2v-1.4l1.7,0l0.1-0.1c0.1-0.1,0.2-0.2,0.3-0.4v-0.4l0.5-0.6l0.1-0.2
		c0.3-0.7,0.5-1.5,0.5-2.4v-87c0-0.4,0-0.8-0.1-1.1c-0.1-0.8-0.4-1.5-0.8-2.2c-0.3-0.6-0.8-1.1-1.3-1.5c-0.9-0.8-2-1.2-3.2-1.4
		c-0.4,0-0.8,0-1.2,0c-0.5,0-1,0.2-1.5,0.3l-75.2,25.1c-1.5,0.5-2.8,1.6-3.5,3c-0.7,1.4-0.8,3.1-0.3,4.6c1,3.1,4.5,4.8,7.6,3.8
		l67.4-22.5v73l-54.8,0.2c-3.3,0-6,2.7-6,6v86.1h-18.3c-3.3,0-6,2.7-6,6s2.7,6,6,6l24.3,0c1.9,0,3.6-0.9,4.8-2.4
		c0.8-1,1.2-2.3,1.2-3.6l0-0.1v-86h3l51.8-0.2C321.4,272.4,322.2,272.2,322.9,271.9z"/>
	<path d="M354.5,364.7c3.3,0,6-2.7,6-6l0-151.2c0-3.3-2.7-6-6-6s-6,2.7-6,6v85.3h-53.5c-3.3,0-6,2.7-6,6v59.9c0,3.3,2.7,6,6,6
		s6-2.7,6-6v-53.9h47.5v53.9C348.5,362,351.2,364.7,354.5,364.7z"/>
	<path d="M163.8,364.7h40.1c3.3,0,6-2.7,6-6s-2.7-6-6-6h-14V239.3h58.3c3.3,0,6-2.7,6-6s-2.7-6-6-6H184c-0.1,0-0.2,0-0.3,0l-64.2,0
		c-3.3,0-6,2.7-6,6s2.7,6,6,6h58.3v113.4h-14c-3.3,0-6,2.7-6,6S160.5,364.7,163.8,364.7z"/>
	<path d="M312.8,83.7c-19,0-34.5,15.5-34.5,34.5s15.5,34.5,34.5,34.5s34.5-15.5,34.5-34.5S331.8,83.7,312.8,83.7z M312.8,140.7
		c-12.4,0-22.5-10.1-22.5-22.5c0-12.4,10.1-22.5,22.5-22.5c12.4,0,22.5,10.1,22.5,22.5S325.2,140.7,312.8,140.7z"/>
	<path d="M232.7,3h-47.9c-9.2,0-16.7,7.5-16.7,16.7v25.7c0,4.5,1.7,8.6,4.9,11.8s7.4,4.9,11.8,4.9h39.3L239,78.4
		c1.6,1.8,4.3,2.4,6.6,1.6c2.3-0.9,3.8-3.1,3.8-5.6V19.7C249.4,10.5,241.9,3,232.7,3z M237.4,58.9l-6.2-6.8c-1.1-1.2-2.8-2-4.4-2
		h-41.9c-2.6,0-4.7-2.2-4.7-4.7l0-25.7c0-2.6,2.2-4.7,4.7-4.7h47.9c2.6,0,4.7,2.1,4.7,4.7V58.9z"/>
</g>
</svg>
