<?xml version="1.0" encoding="utf-8"?>
<!-- Generator: Adobe Illustrator 25.0.0, SVG Export Plug-In . SVG Version: 6.00 Build 0)  -->
<svg version="1.1" id="Layer_1" xmlns="http://www.w3.org/2000/svg" xmlns:xlink="http://www.w3.org/1999/xlink" x="0px" y="0px"
	 viewBox="0 0 512 512" style="enable-background:new 0 0 512 512;" xml:space="preserve">
<style type="text/css">
	.st0{fill:#1D1D1B;}
</style>
<g>
	<path d="M162.1,392.5c-4.7,0-8.5,3.8-8.5,8.5v102.4c0,4.7,3.8,8.5,8.5,8.5s8.5-3.8,8.5-8.5V401.1
		C170.7,396.4,166.8,392.5,162.1,392.5z"/>
	<path d="M51.2,366.9v-68.3c0-4.7-3.8-8.5-8.5-8.5s-8.5,3.8-8.5,8.5v68.3c0,4.7,3.8,8.5,8.5,8.5C47.4,375.5,51.2,371.6,51.2,366.9z"
		/>
	<path d="M128,460.8H8.5c-4.7,0-8.5,3.8-8.5,8.5s3.8,8.5,8.5,8.5H128c4.7,0,8.5-3.8,8.5-8.5S132.7,460.8,128,460.8z"/>
	<path d="M128,494.9H8.5c-4.7,0-8.5,3.8-8.5,8.5s3.8,8.5,8.5,8.5H128c4.7,0,8.5-3.8,8.5-8.5S132.7,494.9,128,494.9z"/>
	<path d="M162.1,290.1H93.9c-4.7,0-8.5,3.8-8.5,8.5v68.3c0,4.7,3.8,8.5,8.5,8.5s8.5-3.8,8.5-8.5v-8.5h51.2v8.5
		c0,4.7,3.8,8.5,8.5,8.5s8.5-3.8,8.5-8.5v-68.3C170.7,294,166.8,290.1,162.1,290.1z M153.6,341.3h-51.2v-34.1h51.2V341.3z"/>
	<path d="M128,426.7H8.5c-4.7,0-8.5,3.8-8.5,8.5s3.8,8.5,8.5,8.5H128c4.7,0,8.5-3.8,8.5-8.5S132.7,426.7,128,426.7z"/>
	<path d="M128,392.5H8.5c-4.7,0-8.5,3.8-8.5,8.5s3.8,8.5,8.5,8.5H128c4.7,0,8.5-3.8,8.5-8.5S132.7,392.5,128,392.5z"/>
	<path d="M290.1,170.7c0-18.8-15.3-34.1-34.1-34.1c-18.8,0-34.1,15.3-34.1,34.1s15.3,34.1,34.1,34.1S290.1,189.5,290.1,170.7z
		 M238.9,170.7c0-9.4,7.7-17.1,17.1-17.1c9.4,0,17.1,7.7,17.1,17.1c0,9.4-7.7,17.1-17.1,17.1C246.6,187.7,238.9,180.1,238.9,170.7z"
		/>
	<path d="M298.7,494.9H196.3c-4.7,0-8.5,3.8-8.5,8.5s3.8,8.5,8.5,8.5h102.4c4.7,0,8.5-3.8,8.5-8.5S303.4,494.9,298.7,494.9z"/>
	<path d="M196.3,477.9h70.3c4.7,0,8.5-3.8,8.5-8.5s-3.8-8.5-8.5-8.5h-70.3c-4.7,0-8.5,3.8-8.5,8.5S191.6,477.9,196.3,477.9z"/>
	<path d="M392.5,273.1c-65.9,0-119.5,53.6-119.5,119.5S326.7,512,392.5,512S512,458.4,512,392.5S458.4,273.1,392.5,273.1z
		 M392.5,494.9c-56.5,0-102.4-45.9-102.4-102.4s45.9-102.4,102.4-102.4s102.4,45.9,102.4,102.4C494.9,449,449,494.9,392.5,494.9z"/>
	<path d="M503.5,68.3H341.3c-4.7,0-8.5,3.8-8.5,8.5s3.8,8.5,8.5,8.5h153.6v184.2L262,36.6c-1.7-1.7-3.9-2.5-6.1-2.5
		s-4.4,0.8-6.1,2.5L17.1,269.5V85.3h93.9c4.7,0,8.5-3.8,8.5-8.5V42.7c0-4.7-3.8-8.5-8.5-8.5h-8.5V17.1h51.2v17.1h-8.5
		c-4.7,0-8.5,3.8-8.5,8.5v34.1c0,4.7,3.8,8.5,8.5,8.5h25.6c4.7,0,8.5-3.8,8.5-8.5s-3.8-8.5-8.5-8.5h-17.1V51.2h8.5
		c4.7,0,8.5-3.8,8.5-8.5V8.5c0-4.7-3.8-8.5-8.5-8.5H93.9c-4.7,0-8.5,3.8-8.5,8.5v34.1c0,4.7,3.8,8.5,8.5,8.5h8.5v17.1H8.5
		c-2.3,0-4.4,0.9-6,2.5c-1.6,1.6-2.5,3.8-2.5,6l0,213.3c0,3.5,2.1,6.6,5.3,7.9c1,0.4,2.2,0.6,3.3,0.6c2.2,0,4.4-0.9,6-2.5L256,54.7
		l241.5,241.5c1.6,1.6,3.8,2.5,6,2.5c1.1,0,2.2-0.2,3.3-0.6c3.2-1.3,5.3-4.4,5.3-7.9V76.8C512,72.1,508.2,68.3,503.5,68.3z"/>
	<path class="st0" d="M427.9,434.6c-1.2,0-2.4,0.3-3.4,0.9c-7.6,4.4-16.2,6.7-24.9,6.7c-19.9,0-37.9-12.1-45.8-30.4h41.4
		c3.7,0,6.8-3,6.8-6.8s-3-6.8-6.8-6.8h-44.9c-0.2-2.1-0.3-3.9-0.3-5.7c0-1.8,0.1-3.5,0.3-5.7h44.9c3.7,0,6.8-3,6.8-6.8
		s-3-6.8-6.8-6.8h-41.4c7.6-18.6,25.3-30.5,45.8-30.5c8.7,0,17.3,2.3,24.9,6.7c1,0.6,2.2,0.9,3.4,0.9c2.4,0,4.7-1.3,5.9-3.4
		c1.9-3.2,0.8-7.4-2.5-9.3c-9.6-5.6-20.5-8.5-31.7-8.5c-27.3,0-51.9,18-60.2,44h-10.2c-3.7,0-6.8,3-6.8,6.8s3,6.8,6.8,6.8h7.5
		c-0.2,2.1-0.3,3.8-0.3,5.7c0,1.8,0.1,3.6,0.3,5.7h-7.5c-3.7,0-6.8,3-6.8,6.8s3,6.8,6.8,6.8h10.2c8.3,26,32.9,44,60.2,44
		c11.1,0,22.1-3,31.7-8.5c1.6-0.9,2.7-2.4,3.2-4.1c0.5-1.8,0.2-3.6-0.7-5.1C432.5,435.9,430.3,434.6,427.9,434.6z"/>
	<path d="M196.3,443.7h55.5c4.7,0,8.5-3.8,8.5-8.5s-3.8-8.5-8.5-8.5h-55.5c-4.7,0-8.5,3.8-8.5,8.5S191.6,443.7,196.3,443.7z"/>
	<path d="M204.8,298.7v68.3c0,4.7,3.8,8.5,8.5,8.5s8.5-3.8,8.5-8.5v-59.7h59.7c4.7,0,8.5-3.8,8.5-8.5s-3.8-8.5-8.5-8.5h-68.3
		C208.6,290.1,204.8,294,204.8,298.7z"/>
	<path d="M187.7,401.1c0,4.7,3.8,8.5,8.5,8.5h51.2c4.7,0,8.5-3.8,8.5-8.5s-3.8-8.5-8.5-8.5h-51.2
		C191.6,392.5,187.7,396.4,187.7,401.1z"/>
</g>
</svg>
