<?xml version="1.0" encoding="utf-8"?>
<!-- Generator: Adobe Illustrator 25.0.0, SVG Export Plug-In . SVG Version: 6.00 Build 0)  -->
<svg version="1.1" id="Capa_1" xmlns="http://www.w3.org/2000/svg" xmlns:xlink="http://www.w3.org/1999/xlink" x="0px" y="0px"
	 viewBox="0 0 463 463" style="enable-background:new 0 0 463 463;" xml:space="preserve">
<style type="text/css">
	.st0{fill:#1D1D1B;}
</style>
<g>
	<path d="M375.5,0h-224c-0.1,0-0.2,0-0.3,0c-0.1,0-0.2,0-0.2,0c-0.3,0-0.6,0.1-0.9,0.1c0,0,0,0,0,0c-0.3,0.1-0.7,0.2-1,0.3
		c-0.1,0-0.1,0-0.2,0.1c-0.3,0.1-0.6,0.2-0.9,0.4c0,0,0,0-0.1,0c-0.3,0.2-0.6,0.3-0.8,0.5c-0.1,0-0.1,0.1-0.2,0.1
		c-0.3,0.2-0.5,0.4-0.8,0.7c0,0,0,0,0,0l-80,80c0,0,0,0,0,0c-0.2,0.2-0.4,0.5-0.7,0.8c0,0.1-0.1,0.1-0.1,0.2
		c-0.2,0.3-0.4,0.5-0.5,0.8c0,0,0,0,0,0.1c-0.1,0.3-0.3,0.6-0.4,0.9c0,0.1,0,0.1-0.1,0.2c-0.1,0.3-0.2,0.6-0.3,1c0,0,0,0,0,0
		C64.1,86.4,64,86.7,64,87c0,0.1,0,0.2,0,0.3c0,0.1,0,0.2,0,0.2v352c0,13,10.5,23.5,23.5,23.5h288c13,0,23.5-10.5,23.5-23.5v-416
		C399,10.5,388.5,0,375.5,0z M144,25.6v45.9c0,4.7-3.8,8.5-8.5,8.5H89.6L144,25.6z M384,439.5c0,4.7-3.8,8.5-8.5,8.5h-288
		c-4.7,0-8.5-3.8-8.5-8.5V95h56.5c13,0,23.5-10.5,23.5-23.5V15h216.5c4.7,0,8.5,3.8,8.5,8.5V439.5z"/>
	<path d="M135.5,215h192c4.1,0,7.5-3.4,7.5-7.5s-3.4-7.5-7.5-7.5h-192c-4.1,0-7.5,3.4-7.5,7.5S131.4,215,135.5,215z"/>
	<path d="M135.5,255h192c4.1,0,7.5-3.4,7.5-7.5s-3.4-7.5-7.5-7.5h-192c-4.1,0-7.5,3.4-7.5,7.5S131.4,255,135.5,255z"/>
	<path d="M135.5,295h96c4.1,0,7.5-3.4,7.5-7.5s-3.4-7.5-7.5-7.5h-96c-4.1,0-7.5,3.4-7.5,7.5S131.4,295,135.5,295z"/>
	<path d="M239,327.5c0-4.1-3.4-7.5-7.5-7.5h-96c-4.1,0-7.5,3.4-7.5,7.5s3.4,7.5,7.5,7.5h96C235.6,335,239,331.6,239,327.5z"/>
	<path class="st0" d="M328,147.8c-1.2,0-2.4,0.3-3.4,0.9c-7.6,4.4-16.2,6.7-24.9,6.7c-19.9,0-37.9-12.1-45.8-30.4h41.4
		c3.7,0,6.8-3,6.8-6.8s-3-6.8-6.8-6.8h-44.9c-0.2-2.1-0.3-3.9-0.3-5.7c0-1.8,0.1-3.5,0.3-5.7h44.9c3.7,0,6.8-3,6.8-6.8
		s-3-6.8-6.8-6.8h-41.4c7.6-18.6,25.3-30.5,45.8-30.5c8.7,0,17.3,2.3,24.9,6.7c1,0.6,2.2,0.9,3.4,0.9c2.4,0,4.7-1.3,5.9-3.4
		c1.9-3.2,0.8-7.4-2.5-9.3c-9.6-5.6-20.5-8.5-31.7-8.5c-27.3,0-51.9,18-60.2,44h-10.2c-3.7,0-6.8,3-6.8,6.8s3,6.8,6.8,6.8h7.5
		c-0.2,2.1-0.3,3.8-0.3,5.7c0,1.8,0.1,3.6,0.3,5.7h-7.5c-3.7,0-6.8,3-6.8,6.8s3,6.8,6.8,6.8h10.2c8.3,26,32.9,44,60.2,44
		c11.1,0,22.1-3,31.7-8.5c1.6-0.9,2.7-2.4,3.2-4.1c0.5-1.8,0.2-3.6-0.7-5.1C332.7,149.1,330.4,147.8,328,147.8z"/>
	<path d="M342.3,320.5c-3.6-2-8.2-0.8-10.2,2.8l-15.4,27.3l-2.1-1.6c-1.8-1.4-4.1-1.9-6.3-1.4c-2.2,0.5-4,2-5,4l-7.8,15.8l-2.5-2.9
		c-3.7-4.2-9.1-6.1-14.6-5c-5.5,1.1-9.9,4.9-11.7,10.1l-8.6,24.8l-20.5-25.9c-1.3-1.6-3.1-2.6-5.2-2.8c-2-0.2-4.1,0.5-5.6,1.8
		l-21.7,19c-3.1,2.7-3.4,7.5-0.7,10.6c2.7,3.1,7.5,3.4,10.6,0.7l15.8-13.8l19.6,24.7c2.2,2.8,5.5,4.4,9,4.4c0.6,0,1.3-0.1,1.9-0.2
		c4.1-0.7,7.6-3.6,8.9-7.6l10.7-30.8c0-0.1,0.1-0.3,0.4-0.3c0.3-0.1,0.4,0.1,0.5,0.2l9.9,11.4c1.6,1.9,4.1,2.8,6.6,2.5
		c2.5-0.3,4.6-1.9,5.8-4.1l8.7-17.7l1.7,1.3c1.7,1.3,3.9,1.8,6.1,1.4c2.1-0.4,4-1.8,5-3.7l19.7-34.8
		C347.1,327.1,345.9,322.5,342.3,320.5z"/>
</g>
</svg>
